<svg width="126" height="20" viewBox="0 0 126 20" fill="none" xmlns="http://www.w3.org/2000/svg">
<path d="M10.14 17.316H9.67196C9.53329 17.6107 9.35996 17.8967 9.15196 18.174C8.96129 18.434 8.70129 18.668 8.37196 18.876C8.05996 19.084 7.67862 19.2487 7.22796 19.37C6.79462 19.4913 6.26596 19.552 5.64196 19.552C4.84462 19.552 4.09929 19.4133 3.40596 19.136C2.72996 18.8413 2.13196 18.4167 1.61196 17.862C1.10929 17.29 0.710624 16.5967 0.415957 15.782C0.138624 14.9673 -4.28781e-05 14.0313 -4.28781e-05 12.974V12.506C-4.28781e-05 11.466 0.14729 10.5387 0.441957 9.72399C0.753957 8.90932 1.16996 8.22465 1.68996 7.66999C2.22729 7.09799 2.84262 6.66465 3.53596 6.36999C4.24662 6.07532 4.99196 5.92799 5.77196 5.92799C6.81196 5.92799 7.63529 6.12732 8.24196 6.52599C8.84862 6.90732 9.32529 7.45332 9.67196 8.16399H10.14V0.987987H13.416V19.188H10.14V17.316ZM6.70796 16.432C7.73062 16.432 8.55396 16.1113 9.17796 15.47C9.81929 14.8113 10.14 13.9533 10.14 12.896V12.584C10.14 11.5267 9.81929 10.6773 9.17796 10.036C8.55396 9.37732 7.73062 9.04799 6.70796 9.04799C5.68529 9.04799 4.85329 9.36865 4.21196 10.01C3.58796 10.634 3.27596 11.492 3.27596 12.584V12.896C3.27596 13.988 3.58796 14.8547 4.21196 15.496C4.85329 16.12 5.68529 16.432 6.70796 16.432ZM19.6899 13.806C19.7072 14.1873 19.7939 14.5427 19.9499 14.872C20.1232 15.184 20.3485 15.4613 20.6259 15.704C20.9205 15.9293 21.2499 16.1113 21.6139 16.25C21.9952 16.3713 22.3939 16.432 22.8099 16.432C23.6245 16.432 24.2485 16.2933 24.6819 16.016C25.1152 15.7213 25.4272 15.3747 25.6179 14.976L28.4259 16.536C28.2699 16.8653 28.0532 17.212 27.7759 17.576C27.4985 17.9227 27.1345 18.2433 26.6839 18.538C26.2505 18.8327 25.7132 19.0753 25.0719 19.266C24.4479 19.4567 23.7112 19.552 22.8619 19.552C21.8912 19.552 21.0072 19.396 20.2099 19.084C19.4125 18.772 18.7192 18.3213 18.1299 17.732C17.5579 17.1427 17.1072 16.4233 16.7779 15.574C16.4659 14.7247 16.3099 13.7627 16.3099 12.688V12.532C16.3099 11.544 16.4745 10.6427 16.8039 9.82799C17.1505 9.01332 17.6185 8.31999 18.2079 7.74799C18.7972 7.17599 19.4819 6.73399 20.2619 6.42199C21.0592 6.09265 21.9085 5.92799 22.8099 5.92799C23.9192 5.92799 24.8725 6.12732 25.6699 6.52599C26.4672 6.90732 27.1259 7.40132 27.6459 8.00799C28.1659 8.59732 28.5472 9.25599 28.7899 9.98399C29.0325 10.6947 29.1539 11.388 29.1539 12.064V13.806H19.6899ZM22.7839 8.89199C21.9519 8.89199 21.2759 9.10865 20.7559 9.54199C20.2359 9.95799 19.8979 10.4433 19.7419 10.998H25.8259C25.7219 10.3913 25.3925 9.88865 24.8379 9.48999C24.3005 9.09132 23.6159 8.89199 22.7839 8.89199ZM31.8138 6.29199H35.3498L38.3918 17.628H38.8598L41.9018 6.29199H45.4378L41.7458 19.188H35.5058L31.8138 6.29199ZM56.5997 2.44399C56.5997 2.11465 56.6604 1.80265 56.7817 1.50799C56.9204 1.19599 57.1024 0.935988 57.3277 0.727987C57.5531 0.502654 57.8131 0.329321 58.1077 0.207988C58.4024 0.0693208 58.7231 -1.26362e-05 59.0697 -1.26362e-05C59.7457 -1.26362e-05 60.3177 0.242654 60.7857 0.727987C61.2711 1.19599 61.5137 1.76799 61.5137 2.44399C61.5137 2.79065 61.4444 3.11132 61.3057 3.40599C61.1844 3.70065 61.0111 3.96065 60.7857 4.18599C60.5777 4.41132 60.3177 4.59332 60.0057 4.73199C59.7111 4.85332 59.3991 4.91399 59.0697 4.91399C58.7231 4.91399 58.4024 4.85332 58.1077 4.73199C57.8131 4.59332 57.5531 4.41132 57.3277 4.18599C57.1024 3.96065 56.9204 3.70065 56.7817 3.40599C56.6604 3.11132 56.5997 2.79065 56.5997 2.44399ZM47.2397 6.29199H50.2817V3.63999C50.2817 2.89465 50.5331 2.27065 51.0357 1.76799C51.5384 1.24799 52.1624 0.987987 52.9077 0.987987H55.3517V4.10799H54.2597C53.7917 4.10799 53.5577 4.36799 53.5577 4.88799V6.29199H60.7077V19.188H57.4317V9.41199H53.5577V19.188H50.2817V9.41199H47.2397V6.29199ZM67.8396 19.188H64.5636V6.29199H67.8396V8.21599H68.3076C68.6023 7.48799 69.079 6.92465 69.7376 6.52599C70.3963 6.12732 71.1676 5.92799 72.0516 5.92799C72.6756 5.92799 73.2563 6.03199 73.7936 6.23999C74.3483 6.43065 74.8336 6.73399 75.2496 7.14999C75.6656 7.56599 75.9863 8.09465 76.2116 8.73599C76.4543 9.37732 76.5756 10.14 76.5756 11.024V19.188H73.2996V11.856C73.2996 10.9373 73.0743 10.218 72.6236 9.69799C72.1903 9.16065 71.5576 8.89199 70.7256 8.89199C69.755 8.89199 69.027 9.22132 68.5416 9.87999C68.0736 10.5213 67.8396 11.388 67.8396 12.48V19.188ZM89.7396 17.316H89.2716C89.1329 17.6107 88.9596 17.8967 88.7516 18.174C88.5609 18.434 88.3009 18.668 87.9716 18.876C87.6596 19.084 87.2782 19.2487 86.8276 19.37C86.3942 19.4913 85.8656 19.552 85.2416 19.552C84.4442 19.552 83.6989 19.4133 83.0056 19.136C82.3296 18.8413 81.7316 18.4167 81.2116 17.862C80.7089 17.29 80.3102 16.5967 80.0156 15.782C79.7382 14.9673 79.5996 14.0313 79.5996 12.974V12.506C79.5996 11.466 79.7469 10.5387 80.0416 9.72399C80.3536 8.90932 80.7696 8.22465 81.2896 7.66999C81.8269 7.09799 82.4422 6.66465 83.1356 6.36999C83.8462 6.07532 84.5916 5.92799 85.3716 5.92799C86.4116 5.92799 87.2349 6.12732 87.8416 6.52599C88.4482 6.90732 88.9249 7.45332 89.2716 8.16399H89.7396V0.987987H93.0156V19.188H89.7396V17.316ZM86.3076 16.432C87.3302 16.432 88.1536 16.1113 88.7776 15.47C89.4189 14.8113 89.7396 13.9533 89.7396 12.896V12.584C89.7396 11.5267 89.4189 10.6773 88.7776 10.036C88.1536 9.37732 87.3302 9.04799 86.3076 9.04799C85.2849 9.04799 84.4529 9.36865 83.8116 10.01C83.1876 10.634 82.8756 11.492 82.8756 12.584V12.896C82.8756 13.988 83.1876 14.8547 83.8116 15.496C84.4529 16.12 85.2849 16.432 86.3076 16.432ZM99.2895 13.806C99.3068 14.1873 99.3935 14.5427 99.5495 14.872C99.7228 15.184 99.9482 15.4613 100.225 15.704C100.52 15.9293 100.849 16.1113 101.213 16.25C101.595 16.3713 101.993 16.432 102.409 16.432C103.224 16.432 103.848 16.2933 104.281 16.016C104.715 15.7213 105.027 15.3747 105.217 14.976L108.025 16.536C107.869 16.8653 107.653 17.212 107.375 17.576C107.098 17.9227 106.734 18.2433 106.283 18.538C105.85 18.8327 105.313 19.0753 104.671 19.266C104.047 19.4567 103.311 19.552 102.461 19.552C101.491 19.552 100.607 19.396 99.8095 19.084C99.0122 18.772 98.3188 18.3213 97.7295 17.732C97.1575 17.1427 96.7068 16.4233 96.3775 15.574C96.0655 14.7247 95.9095 13.7627 95.9095 12.688V12.532C95.9095 11.544 96.0742 10.6427 96.4035 9.82799C96.7502 9.01332 97.2182 8.31999 97.8075 7.74799C98.3968 7.17599 99.0815 6.73399 99.8615 6.42199C100.659 6.09265 101.508 5.92799 102.409 5.92799C103.519 5.92799 104.472 6.12732 105.269 6.52599C106.067 6.90732 106.725 7.40132 107.245 8.00799C107.765 8.59732 108.147 9.25599 108.389 9.98399C108.632 10.6947 108.753 11.388 108.753 12.064V13.806H99.2895ZM102.383 8.89199C101.551 8.89199 100.875 9.10865 100.355 9.54199C99.8355 9.95799 99.4975 10.4433 99.3415 10.998H105.425C105.321 10.3913 104.992 9.88865 104.437 9.48999C103.9 9.09132 103.215 8.89199 102.383 8.89199ZM111.699 6.29199H117.159V8.16399H117.627C117.87 7.45332 118.277 6.90732 118.849 6.52599C119.439 6.12732 120.141 5.92799 120.955 5.92799C122.238 5.92799 123.269 6.33532 124.049 7.14999C124.829 7.94732 125.219 9.16932 125.219 10.816V11.388L121.839 11.7V11.336C121.839 10.6253 121.657 10.062 121.293 9.64599C120.929 9.21265 120.383 8.99599 119.655 8.99599C118.927 8.99599 118.355 9.24732 117.939 9.74999C117.523 10.2527 117.315 10.972 117.315 11.908V16.068H120.279V19.188H111.387V16.068H114.039V9.41199H111.699V6.29199Z" fill="white"/>
</svg>
